<svg width="41" height="40" viewBox="0 0 41 40" fill="none" xmlns="http://www.w3.org/2000/svg">
<g clip-path="url(#clip0_60_994)">
<g clip-path="url(#clip1_60_994)">
<mask id="mask0_60_994" style="mask-type:luminance" maskUnits="userSpaceOnUse" x="0" y="10" width="26" height="26">
<path d="M25.4502 10.99H0.450195V35.99H25.4502V10.99Z" fill="white"/>
</mask>
<g mask="url(#mask0_60_994)">
<path d="M9.04395 19.5837V17.24C9.04395 16.6184 9.29087 16.0223 9.73041 15.5827C10.17 15.1432 10.7661 14.8962 11.3877 14.8962H14.5127C15.1343 14.8962 15.7304 15.1432 16.17 15.5827C16.6095 16.0223 16.8564 16.6184 16.8564 17.24C16.8564 17.8616 16.6095 18.4577 16.17 18.8973C15.7304 19.3368 15.1343 19.5837 14.5127 19.5837H4.35645V28.1775C4.35645 29.2135 4.768 30.2071 5.50056 30.9397C6.23312 31.6722 7.2267 32.0837 8.2627 32.0837H17.6377C18.6737 32.0837 19.6673 31.6722 20.3999 30.9397C21.1324 30.2071 21.5439 29.2135 21.5439 28.1775V19.5837H18.6794" stroke="#111111" stroke-width="1.5625"/>
</g>
</g>
</g>
<rect x="20.4502" y="0.98999" width="20" height="20" rx="10" fill="#F2F2F2"/>
<path d="M27.6282 11.35C27.6282 11.8833 27.6416 12.4833 27.6682 13.15C27.7082 13.8033 27.8149 14.4233 27.9882 15.01C28.1749 15.5833 28.4682 16.07 28.8682 16.47C29.2682 16.87 29.8282 17.07 30.5482 17.07C31.2682 17.07 31.8282 16.87 32.2282 16.47C32.6282 16.07 32.9149 15.5833 33.0882 15.01C33.2749 14.4233 33.3816 13.8033 33.4082 13.15C33.4482 12.4833 33.4682 11.8833 33.4682 11.35C33.4682 11.0033 33.4616 10.6233 33.4482 10.21C33.4482 9.78329 33.4149 9.36329 33.3482 8.94996C33.2949 8.52329 33.2082 8.10996 33.0882 7.70996C32.9816 7.30996 32.8149 6.96329 32.5882 6.66996C32.3749 6.36329 32.1016 6.11662 31.7682 5.92996C31.4349 5.74329 31.0282 5.64996 30.5482 5.64996C30.0682 5.64996 29.6616 5.74329 29.3282 5.92996C28.9949 6.11662 28.7149 6.36329 28.4882 6.66996C28.2749 6.96329 28.1082 7.30996 27.9882 7.70996C27.8816 8.10996 27.7949 8.52329 27.7282 8.94996C27.6749 9.36329 27.6416 9.78329 27.6282 10.21C27.6282 10.6233 27.6282 11.0033 27.6282 11.35ZM25.8282 11.37C25.8282 10.85 25.8416 10.31 25.8682 9.74996C25.8949 9.18996 25.9616 8.64329 26.0682 8.10996C26.1749 7.57662 26.3282 7.06996 26.5282 6.58996C26.7282 6.10996 27.0016 5.68996 27.3482 5.32996C27.6949 4.96996 28.1282 4.68329 28.6482 4.46996C29.1816 4.25662 29.8149 4.14996 30.5482 4.14996C31.2816 4.14996 31.9082 4.25662 32.4282 4.46996C32.9616 4.68329 33.4016 4.96996 33.7482 5.32996C34.0949 5.68996 34.3682 6.10996 34.5682 6.58996C34.7682 7.06996 34.9216 7.57662 35.0282 8.10996C35.1349 8.64329 35.2016 9.18996 35.2282 9.74996C35.2549 10.31 35.2682 10.85 35.2682 11.37C35.2682 11.89 35.2549 12.43 35.2282 12.99C35.2016 13.55 35.1349 14.0966 35.0282 14.63C34.9216 15.1633 34.7682 15.67 34.5682 16.15C34.3682 16.6166 34.0949 17.03 33.7482 17.39C33.4016 17.75 32.9682 18.0366 32.4482 18.25C31.9282 18.45 31.2949 18.55 30.5482 18.55C29.8149 18.55 29.1816 18.45 28.6482 18.25C28.1282 18.0366 27.6949 17.75 27.3482 17.39C27.0016 17.03 26.7282 16.6166 26.5282 16.15C26.3282 15.67 26.1749 15.1633 26.0682 14.63C25.9616 14.0966 25.8949 13.55 25.8682 12.99C25.8416 12.43 25.8282 11.89 25.8282 11.37Z" fill="black"/>
<defs>
<clipPath id="clip0_60_994">
<rect width="25" height="25" fill="white" transform="translate(0.450195 10.99)"/>
</clipPath>
<clipPath id="clip1_60_994">
<rect width="25" height="25" fill="white" transform="translate(0.450195 10.99)"/>
</clipPath>
</defs>
</svg>
