<svg width="1502" height="83" viewBox="0 0 1502 83" fill="none" xmlns="http://www.w3.org/2000/svg">
<g clip-path="url(#clip0_60_966)">
<mask id="mask0_60_966" style="mask-type:luminance" maskUnits="userSpaceOnUse" x="0" y="0" width="79" height="79">
<path d="M78.9601 0H0.5V78.4601H78.9601V0Z" fill="white"/>
</mask>
<g mask="url(#mask0_60_966)">
<path fill-rule="evenodd" clip-rule="evenodd" d="M69.3563 29.9869L26.0303 44.8757C22.423 46.1155 19.3885 46.7341 16.9431 46.7341C14.1917 46.7341 12.1873 45.9475 10.9564 44.3771C9.36009 42.3507 10.0578 39.0924 12.7961 35.6528C14.422 33.6425 16.489 31.7973 18.5032 30.0322C18.0293 30.6562 13.8461 36.2954 18.4209 38.9511C19.326 39.4843 20.6128 39.7457 22.1959 39.7457C23.4664 39.7457 24.9244 39.5777 26.5273 39.2391L69.3563 29.9869Z" fill="#111111"/>
</g>
</g>
<path d="M585.928 34.566H587.448V39.478H593.464V34.566H594.984V45.99H593.464V40.758H587.448V45.99H585.928V34.566ZM600.819 46.166C600.157 46.166 599.576 46.0593 599.075 45.846C598.584 45.622 598.168 45.318 597.827 44.934C597.485 44.5393 597.229 44.0807 597.059 43.558C596.888 43.0353 596.803 42.47 596.803 41.862C596.803 41.254 596.888 40.6887 597.059 40.166C597.229 39.6327 597.485 39.174 597.827 38.79C598.168 38.3953 598.584 38.086 599.075 37.862C599.576 37.638 600.157 37.526 600.819 37.526C601.469 37.526 602.045 37.638 602.547 37.862C603.048 38.086 603.469 38.3953 603.811 38.79C604.152 39.174 604.408 39.6327 604.579 40.166C604.749 40.6887 604.835 41.254 604.835 41.862C604.835 42.47 604.749 43.0353 604.579 43.558C604.408 44.0807 604.152 44.5393 603.811 44.934C603.469 45.318 603.048 45.622 602.547 45.846C602.045 46.0593 601.469 46.166 600.819 46.166ZM600.819 44.982C601.171 44.982 601.501 44.9127 601.811 44.774C602.131 44.6353 602.408 44.438 602.643 44.182C602.877 43.9153 603.059 43.59 603.187 43.206C603.325 42.8113 603.395 42.3633 603.395 41.862C603.395 41.3607 603.325 40.918 603.187 40.534C603.059 40.1393 602.877 39.8087 602.643 39.542C602.408 39.2753 602.131 39.0727 601.811 38.934C601.501 38.7953 601.171 38.726 600.819 38.726C600.467 38.726 600.131 38.7953 599.811 38.934C599.501 39.0727 599.229 39.2753 598.995 39.542C598.76 39.8087 598.573 40.1393 598.435 40.534C598.307 40.918 598.243 41.3607 598.243 41.862C598.243 42.3633 598.307 42.8113 598.435 43.206C598.573 43.59 598.76 43.9153 598.995 44.182C599.229 44.438 599.501 44.6353 599.811 44.774C600.131 44.9127 600.467 44.982 600.819 44.982ZM606.438 37.718H610.262C610.625 37.718 610.971 37.7447 611.302 37.798C611.643 37.8513 611.947 37.9527 612.214 38.102C612.481 38.2407 612.694 38.4433 612.854 38.71C613.014 38.9767 613.094 39.318 613.094 39.734C613.094 40.182 612.987 40.5447 612.774 40.822C612.561 41.0993 612.262 41.3287 611.878 41.51V41.526C612.358 41.622 612.737 41.846 613.014 42.198C613.302 42.55 613.446 43.0033 613.446 43.558C613.446 43.91 613.382 44.2353 613.254 44.534C613.137 44.8327 612.966 45.0887 612.742 45.302C612.518 45.5153 612.251 45.686 611.942 45.814C611.633 45.9313 611.297 45.99 610.934 45.99H606.438V37.718ZM610.678 44.838C611.126 44.838 611.462 44.71 611.686 44.454C611.921 44.1873 612.038 43.8567 612.038 43.462C612.038 43.0887 611.915 42.79 611.67 42.566C611.425 42.342 611.014 42.23 610.438 42.23H607.782V44.838H610.678ZM610.118 41.11C610.705 41.11 611.11 41.0033 611.334 40.79C611.569 40.5767 611.686 40.294 611.686 39.942C611.686 39.6007 611.574 39.3393 611.35 39.158C611.126 38.966 610.715 38.87 610.118 38.87H607.782V41.11H610.118ZM615.079 37.718H616.439V44.47L620.343 37.718H622.087V45.99H620.727V39.238L616.823 45.99H615.079V37.718ZM624.141 37.718H625.501V41.014H629.693V37.718H631.053V45.99H629.693V42.182H625.501V45.99H624.141V37.718ZM633.094 37.718H634.454V41.67L638.246 37.718H640.054L636.39 41.302L640.486 45.99H638.742L635.286 42.054L634.454 42.87V45.99H633.094V37.718ZM641.516 37.718H642.876V44.47L646.78 37.718H648.524V45.99H647.164V39.238L643.26 45.99H641.516V37.718Z" fill="#111111"/>
<path d="M688.34 34.566H690.42L694.02 44.166L697.636 34.566H699.716V45.99H698.276V36.486H698.244L694.676 45.99H693.38L689.812 36.486H689.78V45.99H688.34V34.566ZM702.869 49.286C702.709 49.286 702.549 49.2753 702.389 49.254C702.229 49.2327 702.074 49.1953 701.925 49.142V47.894C702.053 47.9367 702.181 47.9793 702.309 48.022C702.448 48.0647 702.586 48.086 702.725 48.086C703.002 48.086 703.226 48.022 703.397 47.894C703.568 47.766 703.717 47.5793 703.845 47.334L704.405 45.942L701.125 37.718H702.661L705.077 44.486H705.109L707.429 37.718H708.869L705.269 47.078C705.109 47.4833 704.949 47.8247 704.789 48.102C704.64 48.3793 704.469 48.6033 704.277 48.774C704.096 48.9553 703.888 49.0833 703.653 49.158C703.429 49.2433 703.168 49.286 702.869 49.286ZM712.997 41.558L709.461 37.718H711.141L714.581 41.558V37.718H715.941V41.558L719.381 37.718H721.061L717.509 41.558L721.525 45.99H719.845L716.405 42.294L715.941 42.71V45.99H714.581V42.71L714.053 42.23L710.677 45.99H708.997L712.997 41.558ZM727.512 42.63C727.267 42.7367 726.926 42.838 726.488 42.934C726.051 43.03 725.592 43.078 725.112 43.078C724.088 43.078 723.358 42.8593 722.92 42.422C722.483 41.974 722.264 41.35 722.264 40.55V37.718H723.624V40.326C723.624 40.87 723.747 41.2753 723.992 41.542C724.248 41.798 724.707 41.926 725.368 41.926C725.774 41.926 726.174 41.8833 726.568 41.798C726.963 41.7127 727.278 41.6167 727.512 41.51V37.718H728.872V45.99H727.512V42.63ZM730.927 37.718H732.287V44.47L736.191 37.718H737.935V45.99H736.575V39.238L732.671 45.99H730.927V37.718ZM739.99 37.718H741.35V41.014H745.542V37.718H746.902V45.99H745.542V42.182H741.35V45.99H739.99V37.718ZM748.943 37.718H750.303V40.886H752.863C753.674 40.886 754.324 41.11 754.815 41.558C755.306 41.9953 755.551 42.614 755.551 43.414C755.551 44.1927 755.316 44.8167 754.847 45.286C754.378 45.7553 753.738 45.99 752.927 45.99H748.943V37.718ZM752.431 44.79C753.572 44.79 754.143 44.3313 754.143 43.414C754.143 42.5073 753.572 42.054 752.431 42.054H750.303V44.79H752.431ZM756.863 37.718H758.223V45.99H756.863V37.718Z" fill="#111111"/>
<path d="M802.248 39.846L797.224 34.566H799.112L804.104 39.894V34.566H805.592V39.894L810.584 34.566H812.472L807.4 39.814L812.824 45.99H810.936L806.28 40.678L805.592 41.414V45.99H804.104V41.414L803.336 40.662L798.76 45.99H796.872L802.248 39.846ZM817.476 46.166C816.814 46.166 816.233 46.0593 815.732 45.846C815.241 45.6327 814.83 45.334 814.5 44.95C814.169 44.566 813.918 44.1073 813.748 43.574C813.588 43.0407 813.508 42.4593 813.508 41.83C813.508 41.2113 813.604 40.6407 813.796 40.118C813.988 39.5847 814.254 39.126 814.596 38.742C814.948 38.358 815.358 38.0593 815.828 37.846C816.308 37.6327 816.83 37.526 817.396 37.526C818.132 37.526 818.74 37.6807 819.22 37.99C819.71 38.2887 820.1 38.6727 820.388 39.142C820.686 39.6113 820.889 40.1233 820.996 40.678C821.113 41.2327 821.161 41.7607 821.14 42.262H814.948C814.937 42.6247 814.98 42.9713 815.076 43.302C815.172 43.622 815.326 43.91 815.54 44.166C815.753 44.4113 816.025 44.6087 816.356 44.758C816.686 44.9073 817.076 44.982 817.524 44.982C818.1 44.982 818.569 44.8487 818.932 44.582C819.305 44.3153 819.55 43.91 819.668 43.366H821.012C820.83 44.3047 820.43 45.0087 819.812 45.478C819.193 45.9367 818.414 46.166 817.476 46.166ZM819.7 41.062C819.678 40.742 819.604 40.438 819.476 40.15C819.358 39.862 819.193 39.6167 818.98 39.414C818.777 39.2007 818.532 39.0353 818.244 38.918C817.966 38.79 817.657 38.726 817.316 38.726C816.964 38.726 816.644 38.79 816.356 38.918C816.078 39.0353 815.838 39.2007 815.636 39.414C815.433 39.6273 815.273 39.878 815.156 40.166C815.038 40.4433 814.969 40.742 814.948 41.062H819.7ZM822.549 37.718H823.909V41.014H828.101V37.718H829.461V45.99H828.101V42.182H823.909V45.99H822.549V37.718ZM842.223 45.99H831.503V37.718H832.863V44.79H836.271V37.718H837.631V44.79H841.039V37.718H842.399V44.79H843.519V48.502H842.223V45.99ZM844.799 37.718H846.159V44.47L850.063 37.718H851.807V45.99H850.447V39.238L846.543 45.99H844.799V37.718ZM853.862 37.718H855.222V41.014H859.414V37.718H860.774V45.99H859.414V42.182H855.222V45.99H853.862V37.718ZM862.815 37.718H864.175V40.886H866.735C867.546 40.886 868.196 41.11 868.687 41.558C869.178 41.9953 869.423 42.614 869.423 43.414C869.423 44.1927 869.188 44.8167 868.719 45.286C868.25 45.7553 867.61 45.99 866.799 45.99H862.815V37.718ZM866.303 44.79C867.444 44.79 868.015 44.3313 868.015 43.414C868.015 42.5073 867.444 42.054 866.303 42.054H864.175V44.79H866.303ZM870.735 37.718H872.095V45.99H870.735V37.718Z" fill="#111111"/>
<path d="M910.793 44.71H911.913C912.127 44.326 912.324 43.846 912.505 43.27C912.687 42.694 912.841 42.0647 912.969 41.382C913.108 40.6887 913.215 39.958 913.289 39.19C913.364 38.4113 913.401 37.6273 913.401 36.838V34.566H920.761V44.71H922.025V48.822H920.569V45.99H912.249V48.822H910.793V44.71ZM919.241 44.71V35.846H914.873V37.494C914.873 38.198 914.836 38.9073 914.761 39.622C914.697 40.326 914.601 40.998 914.473 41.638C914.356 42.2673 914.217 42.8487 914.057 43.382C913.908 43.9153 913.748 44.358 913.577 44.71H919.241ZM926.85 46.166C926.188 46.166 925.607 46.0593 925.106 45.846C924.615 45.6327 924.204 45.334 923.874 44.95C923.543 44.566 923.292 44.1073 923.122 43.574C922.962 43.0407 922.882 42.4593 922.882 41.83C922.882 41.2113 922.978 40.6407 923.17 40.118C923.362 39.5847 923.628 39.126 923.97 38.742C924.322 38.358 924.732 38.0593 925.202 37.846C925.682 37.6327 926.204 37.526 926.77 37.526C927.506 37.526 928.114 37.6807 928.594 37.99C929.084 38.2887 929.474 38.6727 929.762 39.142C930.06 39.6113 930.263 40.1233 930.37 40.678C930.487 41.2327 930.535 41.7607 930.514 42.262H924.322C924.311 42.6247 924.354 42.9713 924.45 43.302C924.546 43.622 924.7 43.91 924.914 44.166C925.127 44.4113 925.399 44.6087 925.73 44.758C926.06 44.9073 926.45 44.982 926.898 44.982C927.474 44.982 927.943 44.8487 928.306 44.582C928.679 44.3153 928.924 43.91 929.042 43.366H930.386C930.204 44.3047 929.804 45.0087 929.186 45.478C928.567 45.9367 927.788 46.166 926.85 46.166ZM929.074 41.062C929.052 40.742 928.978 40.438 928.85 40.15C928.732 39.862 928.567 39.6167 928.354 39.414C928.151 39.2007 927.906 39.0353 927.618 38.918C927.34 38.79 927.031 38.726 926.69 38.726C926.338 38.726 926.018 38.79 925.73 38.918C925.452 39.0353 925.212 39.2007 925.01 39.414C924.807 39.6273 924.647 39.878 924.53 40.166C924.412 40.4433 924.343 40.742 924.322 41.062H929.074ZM933.923 38.918H930.963V37.718H938.243V38.918H935.283V45.99H933.923V38.918ZM939.33 37.718H940.69V44.47L944.594 37.718H946.338V45.99H944.978V39.238L941.074 45.99H939.33V37.718Z" fill="#111111"/>
<g clip-path="url(#clip1_60_966)">
<g clip-path="url(#clip2_60_966)">
<mask id="mask1_60_966" style="mask-type:luminance" maskUnits="userSpaceOnUse" x="1342" y="26" width="26" height="26">
<path d="M1367.38 26.99H1342.38V51.99H1367.38V26.99Z" fill="white"/>
</mask>
<g mask="url(#mask1_60_966)">
<path d="M1356.92 43.965C1355.83 44.6175 1354.59 44.9609 1353.32 44.9587C1352.39 44.96 1351.48 44.7787 1350.63 44.4253C1349.77 44.0719 1349 43.5533 1348.35 42.8994C1347.69 42.2472 1347.17 41.4722 1346.82 40.6189C1346.47 39.7657 1346.28 38.851 1346.29 37.9275C1346.29 35.9858 1347.07 34.2285 1348.35 32.9556C1349 32.3017 1349.77 31.7831 1350.63 31.4297C1351.48 31.0763 1352.39 30.895 1353.32 30.8962C1355.26 30.8962 1357.02 31.6827 1358.29 32.9556C1358.94 33.6078 1359.46 34.3828 1359.82 35.236C1360.17 36.0893 1360.35 37.0039 1360.35 37.9275C1360.35 39.1748 1360.02 40.4 1359.39 41.4764C1358.85 42.3952 1358.94 43.5473 1359.69 44.3004L1363.7 48.3139" stroke="#111111" stroke-width="1.5625"/>
</g>
</g>
</g>
<g clip-path="url(#clip3_60_966)">
<g clip-path="url(#clip4_60_966)">
<mask id="mask2_60_966" style="mask-type:luminance" maskUnits="userSpaceOnUse" x="1401" y="26" width="26" height="26">
<path d="M1426.92 26.99H1401.92V51.99H1426.92V26.99Z" fill="white"/>
</mask>
<g mask="url(#mask2_60_966)">
<path d="M1419.41 30.8963C1420.79 30.8963 1422.09 31.4338 1423.06 32.4077C1424.03 33.3764 1424.57 34.6891 1424.57 36.0577C1424.57 37.4263 1424.03 38.739 1423.06 39.7077L1414.42 48.3525L1405.78 39.7077C1404.81 38.739 1404.27 37.4267 1404.27 36.0582C1404.27 34.6899 1404.81 33.3774 1405.78 32.4088C1406.25 31.9278 1406.82 31.5465 1407.45 31.2869C1408.08 31.0273 1408.75 30.8945 1409.43 30.8963C1410.8 30.8963 1412.1 31.4338 1413.07 32.4077L1413.87 33.1994L1414.42 33.7525L1414.97 33.1994L1415.76 32.4077C1416.24 31.9271 1416.81 31.5461 1417.44 31.2866C1418.06 31.0272 1418.74 30.8945 1419.41 30.8963Z" stroke="#111111" stroke-width="1.5625"/>
</g>
</g>
</g>
<g clip-path="url(#clip5_60_966)">
<g clip-path="url(#clip6_60_966)">
<mask id="mask3_60_966" style="mask-type:luminance" maskUnits="userSpaceOnUse" x="1461" y="26" width="26" height="26">
<path d="M1486.45 26.99H1461.45V51.99H1486.45V26.99Z" fill="white"/>
</mask>
<g mask="url(#mask3_60_966)">
<path d="M1470.04 35.5837V33.24C1470.04 32.6184 1470.29 32.0223 1470.73 31.5827C1471.17 31.1432 1471.77 30.8962 1472.39 30.8962H1475.51C1476.13 30.8962 1476.73 31.1432 1477.17 31.5827C1477.61 32.0223 1477.86 32.6184 1477.86 33.24C1477.86 33.8616 1477.61 34.4577 1477.17 34.8973C1476.73 35.3368 1476.13 35.5837 1475.51 35.5837H1465.36V44.1775C1465.36 45.2135 1465.77 46.2071 1466.5 46.9397C1467.23 47.6722 1468.23 48.0837 1469.26 48.0837H1478.64C1479.67 48.0837 1480.67 47.6722 1481.4 46.9397C1482.13 46.2071 1482.54 45.2135 1482.54 44.1775V35.5837H1479.68" stroke="#111111" stroke-width="1.5625"/>
</g>
</g>
</g>
<rect x="1481.45" y="16.99" width="20" height="20" rx="10" fill="#F2F2F2"/>
<path d="M1488.63 27.35C1488.63 27.8833 1488.64 28.4833 1488.67 29.15C1488.71 29.8033 1488.81 30.4233 1488.99 31.01C1489.17 31.5833 1489.47 32.07 1489.87 32.47C1490.27 32.87 1490.83 33.07 1491.55 33.07C1492.27 33.07 1492.83 32.87 1493.23 32.47C1493.63 32.07 1493.91 31.5833 1494.09 31.01C1494.27 30.4233 1494.38 29.8033 1494.41 29.15C1494.45 28.4833 1494.47 27.8833 1494.47 27.35C1494.47 27.0033 1494.46 26.6233 1494.45 26.21C1494.45 25.7833 1494.41 25.3633 1494.35 24.95C1494.29 24.5233 1494.21 24.11 1494.09 23.71C1493.98 23.31 1493.81 22.9633 1493.59 22.67C1493.37 22.3633 1493.1 22.1166 1492.77 21.93C1492.43 21.7433 1492.03 21.65 1491.55 21.65C1491.07 21.65 1490.66 21.7433 1490.33 21.93C1489.99 22.1166 1489.71 22.3633 1489.49 22.67C1489.27 22.9633 1489.11 23.31 1488.99 23.71C1488.88 24.11 1488.79 24.5233 1488.73 24.95C1488.67 25.3633 1488.64 25.7833 1488.63 26.21C1488.63 26.6233 1488.63 27.0033 1488.63 27.35ZM1486.83 27.37C1486.83 26.85 1486.84 26.31 1486.87 25.75C1486.89 25.19 1486.96 24.6433 1487.07 24.11C1487.17 23.5766 1487.33 23.07 1487.53 22.59C1487.73 22.11 1488 21.69 1488.35 21.33C1488.69 20.97 1489.13 20.6833 1489.65 20.47C1490.18 20.2566 1490.81 20.15 1491.55 20.15C1492.28 20.15 1492.91 20.2566 1493.43 20.47C1493.96 20.6833 1494.4 20.97 1494.75 21.33C1495.09 21.69 1495.37 22.11 1495.57 22.59C1495.77 23.07 1495.92 23.5766 1496.03 24.11C1496.13 24.6433 1496.2 25.19 1496.23 25.75C1496.25 26.31 1496.27 26.85 1496.27 27.37C1496.27 27.89 1496.25 28.43 1496.23 28.99C1496.2 29.55 1496.13 30.0966 1496.03 30.63C1495.92 31.1633 1495.77 31.67 1495.57 32.15C1495.37 32.6166 1495.09 33.03 1494.75 33.39C1494.4 33.75 1493.97 34.0366 1493.45 34.25C1492.93 34.45 1492.29 34.55 1491.55 34.55C1490.81 34.55 1490.18 34.45 1489.65 34.25C1489.13 34.0366 1488.69 33.75 1488.35 33.39C1488 33.03 1487.73 32.6166 1487.53 32.15C1487.33 31.67 1487.17 31.1633 1487.07 30.63C1486.96 30.0966 1486.89 29.55 1486.87 28.99C1486.84 28.43 1486.83 27.89 1486.83 27.37Z" fill="black"/>
<defs>
<clipPath id="clip0_60_966">
<rect width="78.99" height="78.99" fill="white" transform="translate(0.5)"/>
</clipPath>
<clipPath id="clip1_60_966">
<rect width="25" height="25" fill="white" transform="translate(1342.38 26.99)"/>
</clipPath>
<clipPath id="clip2_60_966">
<rect width="25" height="25" fill="white" transform="translate(1342.38 26.99)"/>
</clipPath>
<clipPath id="clip3_60_966">
<rect width="25" height="25" fill="white" transform="translate(1401.92 26.99)"/>
</clipPath>
<clipPath id="clip4_60_966">
<rect width="25" height="25" fill="white" transform="translate(1401.92 26.99)"/>
</clipPath>
<clipPath id="clip5_60_966">
<rect width="25" height="25" fill="white" transform="translate(1461.45 26.99)"/>
</clipPath>
<clipPath id="clip6_60_966">
<rect width="25" height="25" fill="white" transform="translate(1461.45 26.99)"/>
</clipPath>
</defs>
</svg>
